<svg width="119" height="54" viewBox="0 0 119 54" fill="none" xmlns="http://www.w3.org/2000/svg">
<g clip-path="url(#clip0_4_41)">
<path d="M53.8666 21.4588H52.2616V7.81067H55.2451C56.0885 7.81067 56.7872 8.06283 57.3411 8.57345C57.9327 9.14712 58.2286 9.96663 58.2286 11.032V12.5702C58.2286 13.623 57.9327 14.4362 57.3411 15.0098C56.8123 15.5141 56.1137 15.7726 55.2451 15.7726H53.8666V21.4651V21.4588ZM53.8666 14.1084H55.2451C55.7234 14.1084 56.0759 13.9823 56.2962 13.7364C56.5165 13.4906 56.6235 13.0997 56.6235 12.5639V11.0257C56.6235 10.4899 56.5102 10.099 56.2962 9.84686C56.0759 9.5947 55.7297 9.46862 55.2451 9.46862H53.8666V14.1084Z" fill="#231F20"/>
<path d="M62.345 21.6353C61.5016 21.6353 60.8029 21.3831 60.249 20.8725C59.6448 20.2988 59.3427 19.4793 59.3427 18.4139V10.8491C59.3427 9.79638 59.6448 8.97686 60.249 8.39059C60.8029 7.88627 61.5016 7.62781 62.345 7.62781C63.1885 7.62781 63.8871 7.87997 64.441 8.39059C65.0327 8.97686 65.3285 9.79638 65.3285 10.8491V12.0973H63.7235V10.8491C63.7235 10.3133 63.6165 9.92246 63.3962 9.6703C63.1759 9.41814 62.8297 9.29206 62.3513 9.29206C61.873 9.29206 61.5205 9.41814 61.2939 9.6703C61.0673 9.92246 60.954 10.3196 60.954 10.8491V18.4139C60.954 18.9498 61.0673 19.3406 61.2939 19.5928C61.5205 19.8449 61.873 19.971 62.3513 19.971C62.8297 19.971 63.1759 19.8449 63.3962 19.5928C63.6165 19.3406 63.7235 18.9435 63.7235 18.4139V15.47H62.345V13.812H65.3285V18.4139C65.3285 19.4793 65.0327 20.2988 64.441 20.8725C63.8871 21.3768 63.1885 21.6353 62.345 21.6353Z" fill="#231F20"/>
<path d="M69.7282 21.4588H66.7259V7.81067H69.7282C70.5843 7.81067 71.2766 8.06283 71.8054 8.57345C72.4096 9.15972 72.7117 9.97924 72.7117 11.032V18.3194C72.7117 19.3722 72.4096 20.1854 71.8054 20.7591C71.2766 21.2256 70.5843 21.4588 69.7282 21.4588ZM68.3309 19.8009H69.7282C70.194 19.8009 70.5276 19.7063 70.729 19.5109C70.9808 19.2776 71.1067 18.8805 71.1067 18.3194V11.032C71.1067 10.4962 70.9934 10.1053 70.7794 9.85316C70.5591 9.601 70.2129 9.47492 69.7282 9.47492H68.3309V19.8072V19.8009Z" fill="#231F20"/>
<path d="M79.5662 21.6353C78.7605 21.6353 78.1248 21.4084 77.659 20.9545C77.1177 20.4313 76.8471 19.6874 76.8471 18.7103V16.7245H77.5457V18.7103C77.5457 19.4794 77.7409 20.0467 78.1311 20.425C78.4584 20.7528 78.9368 20.9104 79.5662 20.9104C80.1956 20.9104 80.6425 20.7465 80.9824 20.425C81.3727 20.0593 81.5678 19.492 81.5678 18.7103V17.7521C81.5678 16.8191 81.3286 16.113 80.8503 15.6465C80.3719 15.18 79.8998 14.8459 79.434 14.6505C78.8675 14.4299 78.2948 14.0453 77.7157 13.5032C77.1366 12.9547 76.8471 12.1037 76.8471 10.9501V10.5592C76.8471 9.58209 77.1177 8.83822 77.659 8.31499C78.1248 7.8611 78.7605 7.63416 79.5662 7.63416C80.3719 7.63416 80.995 7.8611 81.4734 8.31499C82.0021 8.81931 82.2665 9.56948 82.2665 10.5592V11.883H81.5678V10.5592C81.5678 9.77751 81.3727 9.21015 80.9824 8.84452C80.6677 8.52302 80.1956 8.35911 79.5662 8.35911C78.9368 8.35911 78.4584 8.52302 78.1311 8.84452C77.7409 9.22276 77.5457 9.79642 77.5457 10.5592V10.9501C77.5457 11.6246 77.6905 12.1793 77.9738 12.608C78.257 13.0367 78.5402 13.3393 78.8298 13.5221C79.1193 13.7049 79.4152 13.8625 79.7173 13.9886C81.4167 14.7577 82.2665 16.0122 82.2665 17.7521V18.7103C82.2665 19.7 82.0021 20.4439 81.4734 20.9545C80.995 21.4084 80.3593 21.6353 79.5662 21.6353Z" fill="#231F20"/>
<path d="M84.287 21.4588H83.5883V7.81067H86.2885C87.0816 7.81067 87.7173 8.03761 88.1957 8.4915C88.737 9.00843 89.0077 9.7586 89.0077 10.7357V12.4693C89.0077 13.4464 88.737 14.1903 88.1957 14.7135C87.7173 15.1674 87.0816 15.3944 86.2885 15.3944H84.287V21.4588ZM84.287 14.6757H86.2885C86.8928 14.6757 87.3712 14.5118 87.7236 14.1903C88.1139 13.8121 88.309 13.2384 88.309 12.4756V10.742C88.309 9.97294 88.1139 9.40558 87.7236 9.02734C87.3712 8.70584 86.8928 8.54193 86.2885 8.54193H84.287V14.682V14.6757Z" fill="#231F20"/>
<path d="M88.6111 20.9292C88.6111 21.0742 88.5545 21.2003 88.4475 21.3075C88.3405 21.4146 88.2146 21.4714 88.0761 21.4714C87.9376 21.4714 87.8181 21.4146 87.7111 21.3075C87.604 21.2003 87.5474 21.0679 87.5474 20.9292C87.5474 20.7905 87.604 20.6582 87.7111 20.551C87.8181 20.4438 87.9376 20.3871 88.0761 20.3871C88.2146 20.3871 88.3405 20.4438 88.4475 20.551C88.5545 20.6582 88.6111 20.7905 88.6111 20.9292Z" fill="#231F20"/>
<path d="M93.6529 7.81067H92.9542V21.4588H93.6529V7.81067Z" fill="#231F20"/>
<path d="M100.961 21.4588H100.583L96.051 10.3449V21.4588H95.3523V7.81067H95.73L100.262 18.9246V7.81067H100.961V21.4588Z" fill="#231F20"/>
<path d="M110.931 21.4588H105.209L109.911 8.53563H105.209V7.81067H110.912L106.229 20.7402H110.931V21.4588Z" fill="#231F20"/>
<path d="M114.556 21.6353C113.763 21.6353 113.134 21.4084 112.668 20.9545C112.127 20.4502 111.856 19.7 111.856 18.7103V10.5592C111.856 9.56948 112.127 8.82561 112.668 8.31499C113.134 7.8611 113.763 7.63416 114.556 7.63416C115.349 7.63416 115.998 7.8611 116.463 8.31499C117.005 8.81931 117.275 9.56948 117.275 10.5592V11.902H116.577V10.5592C116.577 9.79012 116.382 9.22276 115.991 8.84452C115.639 8.52302 115.16 8.35911 114.556 8.35911C113.952 8.35911 113.493 8.52302 113.14 8.84452C112.75 9.21015 112.555 9.78382 112.555 10.5592V18.7103C112.555 19.492 112.75 20.0593 113.14 20.425C113.467 20.7528 113.939 20.9104 114.556 20.9104C115.173 20.9104 115.664 20.7465 115.991 20.425C116.382 20.0467 116.577 19.4794 116.577 18.7103V14.9846H114.575V14.266H117.275V18.7103C117.275 19.7 117.005 20.4439 116.463 20.9545C115.998 21.4084 115.362 21.6353 114.556 21.6353Z" fill="#231F20"/>
<path d="M119 20.9292C119 21.0742 118.943 21.2003 118.836 21.3075C118.729 21.4209 118.603 21.4714 118.465 21.4714C118.327 21.4714 118.207 21.4146 118.1 21.3075C117.993 21.194 117.936 21.0679 117.936 20.9292C117.936 20.7905 117.993 20.6582 118.1 20.551C118.207 20.4375 118.327 20.3871 118.465 20.3871C118.603 20.3871 118.729 20.4438 118.836 20.551C118.943 20.6645 119 20.7905 119 20.9292Z" fill="#231F20"/>
<path d="M57.1837 49.0451C55.7297 49.0451 54.5275 48.6227 53.5708 47.7717C52.5322 46.8135 52.0098 45.4455 52.0098 43.6678V31.022C52.0098 29.2631 52.5322 27.8952 53.5708 26.9181C54.5275 26.0733 55.7297 25.6447 57.1837 25.6447C58.6377 25.6447 59.8399 26.067 60.7966 26.9181C61.8163 27.8952 62.3262 29.2631 62.3262 31.022V33.1086H59.563V31.022C59.563 30.1331 59.3741 29.4712 58.9965 29.0488C58.6188 28.6264 58.0146 28.4121 57.19 28.4121C56.3655 28.4121 55.7549 28.6264 55.3647 29.0488C54.9744 29.4712 54.7793 30.1268 54.7793 31.022V43.6678C54.7793 44.5566 54.9744 45.2185 55.3647 45.6409C55.7549 46.0633 56.3592 46.2776 57.19 46.2776C58.0209 46.2776 58.6188 46.0633 58.9965 45.6409C59.3741 45.2185 59.563 44.5629 59.563 43.6678V38.7443H57.19V35.9769H62.3324V43.6678C62.3324 45.4518 61.8226 46.8198 60.8029 47.7717C59.8462 48.6164 58.644 49.0451 57.19 49.0451" fill="#231F20"/>
<path d="M69.7408 49.0451C68.2869 49.0451 67.0846 48.6227 66.1279 47.7717C65.1082 46.8135 64.5984 45.4455 64.5984 43.6678V31.022C64.5984 29.2631 65.1082 27.8952 66.1279 26.9181C67.0846 26.0733 68.2869 25.6447 69.7408 25.6447C71.1948 25.6447 72.397 26.067 73.3538 26.9181C74.3734 27.8952 74.8833 29.2631 74.8833 31.022V43.6678C74.8833 45.4518 74.3734 46.8198 73.3538 47.7717C72.397 48.6164 71.1948 49.0451 69.7408 49.0451ZM69.7408 28.4184C68.9163 28.4184 68.312 28.6327 67.9344 29.0551C67.5567 29.4775 67.3679 30.1394 67.3679 31.0283V43.6741C67.3679 44.5629 67.5567 45.2249 67.9344 45.6472C68.312 46.0696 68.9163 46.2839 69.7408 46.2839C70.5654 46.2839 71.1696 46.0696 71.5473 45.6472C71.925 45.2249 72.1138 44.5692 72.1138 43.6741V31.0283C72.1138 30.1394 71.925 29.4775 71.5473 29.0551C71.1696 28.6327 70.5654 28.4184 69.7408 28.4184Z" fill="#231F20"/>
<path d="M87.604 48.7488H84.7401L82.1343 39.2298H80.0509V48.7488H77.2877V25.9346H82.4301C83.9282 25.9346 85.1304 26.357 86.0431 27.208C87.0816 28.141 87.604 29.509 87.604 31.3119V33.884C87.604 35.6428 87.0816 37.0044 86.0431 37.9563C85.7158 38.2842 85.3255 38.5426 84.8723 38.738L87.604 48.7425V48.7488ZM84.8408 31.3119C84.8408 30.4231 84.6457 29.7612 84.2555 29.3388C83.8652 28.9164 83.261 28.7021 82.4364 28.7021H80.0635V36.456H82.4364C83.261 36.456 83.8652 36.248 84.2555 35.8382C84.6457 35.4284 84.8408 34.7728 84.8408 33.884V31.3119Z" fill="#231F20"/>
<path d="M92.5828 25.9346H89.8196V48.7488H92.5828V25.9346Z" fill="#231F20"/>
<path d="M100.13 49.045C98.6568 49.045 97.4609 48.6227 96.5482 47.7716C95.5097 46.8134 94.9872 45.4455 94.9872 43.6677V30.9904C94.9872 29.2316 95.5097 27.8636 96.5482 26.8865C97.4609 26.0418 98.6505 25.6131 100.13 25.6131C101.609 25.6131 102.786 26.0355 103.743 26.8865C104.781 27.8636 105.304 29.2316 105.304 30.9904V33.077H102.54V30.9904C102.54 30.1015 102.345 29.4396 101.955 29.0173C101.565 28.5949 100.954 28.3806 100.136 28.3806C99.3177 28.3806 98.7072 28.5949 98.3295 29.0173C97.9519 29.4396 97.763 30.1015 97.763 30.9904V43.6677C97.763 44.5566 97.9519 45.2185 98.3295 45.6409C98.7072 46.0632 99.3114 46.2776 100.136 46.2776C100.961 46.2776 101.565 46.0632 101.955 45.6409C102.345 45.2185 102.54 44.5629 102.54 43.6677V40.604H105.304V43.6677C105.304 45.4518 104.781 46.8197 103.743 47.7716C102.786 48.6164 101.584 49.045 100.13 49.045Z" fill="#231F20"/>
<path d="M115.293 44.0208H110.54L109.628 48.7488H106.795L111.579 25.9346H114.248L119 48.7488H116.168L115.286 44.0208H115.293ZM114.77 41.2533L112.913 31.4443L111.057 41.2533H114.764H114.77Z" fill="#231F20"/>
<mask id="mask0_4_41" style="mask-type:luminance" maskUnits="userSpaceOnUse" x="18" y="39" width="1" height="1">
<path d="M18.5934 39.3047C18.5934 39.3047 18.6118 39.28 18.5934 39.2676V39.3047Z" fill="white"/>
</mask>
<g mask="url(#mask0_4_41)">
<path d="M18.6118 39.2676H18.5934V39.3047H18.6118V39.2676Z" fill="url(#paint0_linear_4_41)"/>
</g>
<mask id="mask1_4_41" style="mask-type:luminance" maskUnits="userSpaceOnUse" x="0" y="0" width="44" height="51">
<path d="M21.1929 0.340398C21.1363 0.371918 21.0607 0.365614 21.0292 0.384526C21.0041 0.397134 20.9789 0.416046 20.9537 0.428654C15.5658 3.35371 10.2408 4.26148 4.34936 3.25284C4.16053 3.22132 3.27304 2.96916 3.17233 3.04481C3.14086 3.06372 2.90797 3.6563 2.8702 3.75086C2.20301 5.3962 1.6554 7.09828 1.22739 8.82557C0.793083 10.5718 0.484662 12.3432 0.283245 14.1335C0.081827 15.9302 1.16415e-06 17.7394 0.0314727 19.5487C0.0629441 21.3516 0.207713 23.1545 0.472074 24.9449C0.73014 26.7163 1.1015 28.4751 1.59246 30.1961C2.07712 31.8919 2.66878 33.5624 3.38633 35.1763C3.92764 36.4055 4.55707 37.5781 5.24945 38.7254C5.33127 38.8641 5.41939 39.0091 5.50122 39.1478C5.53898 39.2045 5.57046 39.2676 5.60822 39.3243C5.76558 39.5828 5.92294 39.8475 6.08659 40.106C6.25024 40.3771 6.41389 40.6481 6.59013 40.9129C6.82302 41.2596 7.07479 41.5937 7.33286 41.9215C7.42098 41.9215 7.74199 42.4574 7.80493 42.533C7.93711 42.7032 8.0567 42.886 8.20777 43.0373C8.35254 43.1886 8.5036 43.3336 8.64837 43.4786C9.36592 44.1973 10.4737 44.8907 11.1724 45.622C11.8648 46.3343 12.576 47.0341 13.3376 47.6771C13.6209 47.9166 13.9041 48.1436 14.2062 48.3579C15.1315 49.0387 15.7546 49.6944 16.7932 50.1987C16.724 50.0411 16.5099 49.8646 16.3904 49.7259C16.2519 49.562 16.1071 49.3918 15.9749 49.2279C15.698 48.8874 15.4336 48.5407 15.1881 48.1877C14.6846 47.4753 14.2314 46.7252 13.86 45.9372C13.3565 44.8844 12.9977 43.7686 12.8089 42.615L10.3667 40.169C10.159 39.9106 9.32186 38.6876 9.15191 38.6182C9.12044 38.4796 9.10156 38.4606 9.03232 38.3472C8.81831 37.9941 8.55395 37.6096 8.32736 37.2629C8.29589 37.2125 8.2833 37.1557 8.21406 37.162C8.21406 37.1494 8.21406 37.1368 8.21406 37.1242C8.13853 36.9162 8.00635 36.6703 7.85529 36.4181C7.64757 36.0651 7.41468 35.6995 7.26362 35.4095C2.92685 27.1261 2.41701 16.2454 5.99847 7.43239C6.02994 7.35044 6.22506 6.85873 6.25024 6.84612C6.33207 6.78308 7.07479 6.99111 7.23844 7.01633C12.1606 7.85476 16.6107 7.09828 21.1174 4.65233C21.1363 4.63972 21.1551 4.62711 21.1803 4.6145C21.2055 4.6019 21.2684 4.6082 21.3188 4.58298C21.4321 4.51995 21.7342 4.2867 21.8286 4.29931C22.2566 4.51995 22.6784 4.79732 23.1127 5.01166C23.1693 5.03687 23.2134 5.06839 23.2763 5.05578C27.1347 7.24327 32.1953 7.74129 36.3936 7.02263C36.5699 6.99111 37.3126 6.77047 37.4007 6.87764C38.5778 9.70813 39.4023 12.7593 39.78 15.905C40.8941 25.3042 38.112 34.6026 32.6737 40.8751C30.3574 43.5543 27.5501 45.6787 24.3652 47.0278C23.7106 47.3051 22.6091 47.7842 21.9482 47.8788C21.6964 47.9166 21.3188 47.7653 21.0607 47.6897C19.8459 47.3304 18.5745 46.7567 17.4289 46.1452C17.2778 46.0633 17.1583 45.9561 16.9946 45.9183C16.982 45.8804 16.9568 45.8867 16.9317 45.8804C16.9317 45.8804 16.9254 45.8804 16.9191 45.8804H16.9065C16.8687 45.7922 16.7365 45.7607 16.6925 45.7291C16.5792 45.6535 16.4785 45.5274 16.3337 45.5148C16.3148 45.5022 16.2959 45.4896 16.2708 45.477C16.2204 45.395 16.0819 45.3131 16.0001 45.2942C15.9938 45.2942 15.9812 45.2942 15.9686 45.2942C15.9309 45.187 15.8176 45.187 15.7546 45.1492C15.6917 45.105 15.6036 45.0483 15.5406 45.0042C15.3014 44.834 15.1 44.6638 14.8545 44.5188C15.8302 47.4817 18.3227 50.1293 23.9813 50.5139C24.8688 50.5769 25.7059 50.5265 26.4864 50.3941C28.5761 49.3287 30.5148 47.9734 32.2772 46.3785C40.4283 39.0091 44.8154 26.5335 43.3174 13.9003C42.8705 10.1368 41.8823 6.48679 40.4723 3.09524C40.3653 2.96286 39.4715 3.22763 39.2701 3.26545C34.241 4.1354 28.1859 3.53652 23.5721 0.914062C23.4966 0.92667 23.44 0.901454 23.377 0.86363C22.8546 0.605166 22.3573 0.277358 21.8412 0.00628662C21.8412 0.00628662 21.8412 0.00628662 21.8349 0.00628662C21.709 0.00628662 21.3628 0.277358 21.2307 0.346702" fill="white"/>
</mask>
<g mask="url(#mask1_4_41)">
<path d="M44.7839 0H0V50.5643H44.7839V0Z" fill="url(#paint1_linear_4_41)"/>
</g>
<mask id="mask2_4_41" style="mask-type:luminance" maskUnits="userSpaceOnUse" x="5" y="9" width="33" height="45">
<path d="M6.33208 38.6687C7.06222 40.7553 7.83642 42.2052 9.20857 43.9325C10.5807 45.6598 12.3054 47.0782 14.0489 48.4336C16.7617 50.5454 19.6823 52.4492 22.7476 54C33.92 47.5573 39.3331 41.1209 36.935 30.3159C36.1922 26.9685 34.2095 23.7282 30.7351 22.7952C32.4094 27.0756 27.6383 29.0362 26.9648 25.5942C26.7319 23.4635 28.0411 22.3098 28.6202 20.488C29.7658 16.4723 25.8003 12.0974 21.7405 10.1936C22.8357 12.1352 23.547 14.3038 23.4966 16.5228C23.4652 18.1303 22.9931 19.7441 22.1056 21.0806C21.1803 22.4863 19.7138 23.5139 18.4927 24.6486C14.5713 28.2797 10.5996 32.5853 13.4446 38.2968C17.259 45.9561 28.8783 44.0838 30.0616 35.6428H25.794V36.9792L19.3361 35.8634C19.3361 35.8634 19.3361 35.5419 19.355 32.661L25.8192 31.5641V33.0392H32.787C32.7304 33.8587 32.8625 34.7665 32.787 35.5797C31.6792 47.5699 14.2188 49.6187 10.4674 37.8933C9.44776 34.7098 9.74988 31.4632 11.5123 28.6075C13.1677 25.9283 15.6476 23.8543 17.9891 21.7992C19.7326 20.261 21.3692 18.9057 22.1119 16.611C22.7854 14.5181 22.6532 12.1541 21.6965 10.1746C20.8027 9.75858 19.9089 9.4686 19.0654 9.32361C23.2008 21.7362 0.648327 22.4233 6.32578 38.6687" fill="white"/>
</mask>
<g mask="url(#mask2_4_41)">
<path d="M39.3331 9.31732H0.654633V54H39.3331V9.31732Z" fill="url(#paint2_linear_4_41)"/>
</g>
</g>
<defs>
<linearGradient id="paint0_linear_4_41" x1="18.3516" y1="39.4136" x2="18.3516" y2="39.3765" gradientUnits="userSpaceOnUse">
<stop stop-color="#8A8C8F"/>
<stop offset="1" stop-color="#231F20"/>
</linearGradient>
<linearGradient id="paint1_linear_4_41" x1="22.1647" y1="50.5098" x2="22.1647" y2="-0.0167054" gradientUnits="userSpaceOnUse">
<stop stop-color="#8A8C8F"/>
<stop offset="1" stop-color="#231F20"/>
</linearGradient>
<linearGradient id="paint2_linear_4_41" x1="5.27754" y1="31.3894" x2="37.3659" y2="31.3894" gradientUnits="userSpaceOnUse">
<stop stop-color="#EB2127"/>
<stop offset="0.15" stop-color="#EB2726"/>
<stop offset="0.37" stop-color="#ED3925"/>
<stop offset="0.61" stop-color="#F05724"/>
<stop offset="0.89" stop-color="#F58121"/>
<stop offset="1" stop-color="#F79421"/>
</linearGradient>
<clipPath id="clip0_4_41">
<rect width="119" height="54" fill="white"/>
</clipPath>
</defs>
</svg>
